# Blender v2.78 (sub 0) OBJ File: 'panemoneshaft.blend'
# www.blender.org
mtllib panemoneshaft.mtl
o Cube.005_Cube.035
v 0.187500 0.125000 0.812500
v 0.187500 1.000000 0.812500
v 0.187500 0.125000 0.187500
v 0.187500 1.000000 0.187500
v 0.812500 0.125000 0.812500
v 0.812500 1.000000 0.812500
v 0.812500 0.125000 0.187500
v 0.812500 1.000000 0.187500
vt 0.8568 0.0000
vt 0.8568 0.9998
vt 0.1427 0.9998
vt 0.1427 0.0000
vt 0.8529 0.0000
vt 0.8529 0.9998
vt 0.1388 0.9998
vt 0.1388 0.0000
vt 0.8568 0.0000
vt 0.8568 0.9998
vt 0.1427 0.9998
vt 0.1427 0.0000
vt 0.8568 0.0000
vt 0.8568 0.9998
vt 0.1427 0.9998
vt 0.1427 0.0000
vt 0.1404 0.1404
vt 0.8596 0.1404
vt 0.8596 0.8596
vt 0.1404 0.8596
vt 0.8592 0.8592
vt 0.1408 0.8592
vt 0.1408 0.1408
vt 0.8592 0.1408
vn -1.0000 0.0000 0.0000
vn 0.0000 0.0000 -1.0000
vn 1.0000 0.0000 0.0000
vn 0.0000 0.0000 1.0000
vn 0.0000 -1.0000 0.0000
vn 0.0000 1.0000 0.0000
usemtl log
s off
f 1/1/1 2/2/1 4/3/1 3/4/1
f 3/5/2 4/6/2 8/7/2 7/8/2
f 7/9/3 8/10/3 6/11/3 5/12/3
f 5/13/4 6/14/4 2/15/4 1/16/4
f 3/17/5 7/18/5 5/19/5 1/20/5
f 8/21/6 4/22/6 2/23/6 6/24/6
o shaft45.003_Cube.030
v 0.406250 -0.125000 0.593750
v 0.406250 0.125000 0.593750
v 0.406250 -0.125000 0.406250
v 0.406250 0.125000 0.406250
v 0.593750 -0.125000 0.593750
v 0.593750 0.125000 0.593750
v 0.593750 -0.125000 0.406250
v 0.593750 0.125000 0.406250
v 0.500000 -0.125000 0.632583
v 0.500000 0.125000 0.632583
v 0.367417 -0.125000 0.500000
v 0.367417 0.125000 0.500000
v 0.632583 -0.125000 0.500000
v 0.632583 0.125000 0.500000
v 0.500000 -0.125000 0.367417
v 0.500000 0.125000 0.367417
v 0.406140 -0.125000 0.461277
v 0.406140 0.125000 0.461277
v 0.538723 -0.125000 0.593860
v 0.538723 0.125000 0.593860
v 0.461191 0.125000 0.406226
v 0.593774 -0.125000 0.538809
v 0.461191 -0.125000 0.406226
v 0.593774 0.125000 0.538809
v 0.461482 -0.125000 0.594064
v 0.461482 0.125000 0.594064
v 0.594064 -0.125000 0.461482
v 0.594064 0.125000 0.461482
v 0.406079 0.125000 0.538661
v 0.538661 -0.125000 0.406079
v 0.406079 -0.125000 0.538661
v 0.538661 0.125000 0.406079
v 0.343553 -0.125000 0.656447
v 0.343553 0.125000 0.656447
v 0.343553 -0.125000 0.343553
v 0.343553 0.125000 0.343553
v 0.656447 -0.125000 0.656447
v 0.656447 0.125000 0.656447
v 0.656447 -0.125000 0.343553
v 0.656447 0.125000 0.343553
v 0.500000 -0.125000 0.721250
v 0.500000 0.125000 0.721250
v 0.278750 -0.125000 0.500000
v 0.278750 0.125000 0.500000
v 0.721250 -0.125000 0.500000
v 0.721250 0.125000 0.500000
v 0.500000 -0.125000 0.278750
v 0.500000 0.125000 0.278750
v 0.343369 -0.125000 0.435381
v 0.343369 0.125000 0.435381
v 0.564619 -0.125000 0.656631
v 0.564619 0.125000 0.656631
v 0.435237 0.125000 0.343513
v 0.656487 -0.125000 0.564763
v 0.435237 -0.125000 0.343513
v 0.656487 0.125000 0.564763
v 0.435722 -0.125000 0.656972
v 0.435722 0.125000 0.656972
v 0.656972 -0.125000 0.435722
v 0.656972 0.125000 0.435722
v 0.343266 0.125000 0.564516
v 0.564516 -0.125000 0.343266
v 0.343266 -0.125000 0.564516
v 0.564516 0.125000 0.343266
vn 0.7071 0.0000 -0.7071
vn 0.7071 0.0000 0.7071
vn -0.7071 0.0000 0.7071
vn -0.7071 0.0000 -0.7071
vn -0.0020 0.0000 -1.0000
vn -1.0000 0.0000 -0.0004
vn 1.0000 0.0000 0.0020
vn 0.0004 0.0000 1.0000
vn 0.0057 0.0000 -1.0000
vn -1.0000 0.0000 0.0057
vn 0.0000 -1.0000 0.0000
vn -0.0031 0.0000 1.0000
vn 1.0000 0.0000 -0.0031
vn 0.0020 0.0000 1.0000
vn 1.0000 0.0000 0.0004
vn -1.0000 0.0000 -0.0020
vn -0.0004 -0.0000 -1.0000
vn -0.0057 0.0000 1.0000
vn 1.0000 0.0000 -0.0057
vn 0.0031 0.0000 -1.0000
vn -1.0000 0.0000 0.0031
usemtl None
s off
f 39//7 19//7 20//7 37//7
f 31//8 23//8 24//8 29//8
f 35//9 21//9 22//9 36//9
f 27//10 17//10 18//10 28//10
f 13//11 27//11 28//11 14//11
f 13//12 14//12 32//12 30//12
f 19//8 25//8 26//8 20//8
f 21//10 30//10 32//10 22//10
f 11//13 12//13 26//13 25//13
f 11//14 31//14 29//14 12//14
f 9//15 10//15 34//15 33//15
f 15//16 35//16 36//16 16//16
f 17//7 33//7 34//7 18//7
f 23//9 38//9 40//9 24//9
f 29//17 12//17 44//17 61//17
f 15//18 16//18 40//18 38//18
f 26//17 58//17 44//17 12//17
f 9//19 39//19 37//19 10//19
f 71//9 69//9 52//9 51//9
f 63//10 61//10 56//10 55//10
f 67//7 68//7 54//7 53//7
f 59//8 60//8 50//8 49//8
f 45//20 46//20 60//20 59//20
f 45//21 62//21 64//21 46//21
f 51//10 52//10 58//10 57//10
f 53//8 54//8 64//8 62//8
f 43//22 57//22 58//22 44//22
f 43//23 44//23 61//23 63//23
f 41//24 65//24 66//24 42//24
f 47//25 48//25 68//25 67//25
f 49//9 50//9 66//9 65//9
f 55//7 56//7 72//7 70//7
f 20//17 37//17 69//17 52//17
f 47//26 70//26 72//26 48//26
f 26//17 20//17 52//17 58//17
f 41//27 42//27 69//27 71//27
f 33//17 65//17 41//17 9//17
f 39//17 9//17 41//17 71//17
f 39//17 71//17 51//17 19//17
f 19//17 51//17 57//17 25//17
f 17//17 49//17 65//17 33//17
f 27//17 59//17 49//17 17//17
f 21//17 53//17 62//17 30//17
f 35//17 67//17 53//17 21//17
f 27//17 13//17 45//17 59//17
f 30//17 62//17 45//17 13//17
f 35//17 15//17 47//17 67//17
f 38//17 70//17 47//17 15//17
f 23//17 55//17 70//17 38//17
f 31//17 63//17 55//17 23//17
f 31//17 11//17 43//17 63//17
f 25//17 57//17 43//17 11//17
f 24//17 29//17 61//17 56//17
f 40//17 24//17 56//17 72//17
f 40//17 72//17 48//17 16//17
f 36//17 16//17 48//17 68//17
f 22//17 36//17 68//17 54//17
f 32//17 22//17 54//17 64//17
f 32//17 64//17 46//17 14//17
f 28//17 14//17 46//17 60//17
f 18//17 28//17 60//17 50//17
f 34//17 18//17 50//17 66//17
f 34//17 66//17 42//17 10//17
f 37//17 10//17 42//17 69//17
