# Blender v2.78 (sub 0) OBJ File: 'rotaryshaftjoint.blend'
# www.blender.org
mtllib rotaryshaftjoint.mtl
o shaft45.003_Cube.030
v 0.406250 -0.125000 0.593750
v 0.406250 0.125000 0.593750
v 0.406250 -0.125000 0.406250
v 0.406250 0.125000 0.406250
v 0.593750 -0.125000 0.593750
v 0.593750 0.125000 0.593750
v 0.593750 -0.125000 0.406250
v 0.593750 0.125000 0.406250
v 0.500000 -0.125000 0.632583
v 0.500000 0.125000 0.632583
v 0.367417 -0.125000 0.500000
v 0.367417 0.125000 0.500000
v 0.632583 -0.125000 0.500000
v 0.632583 0.125000 0.500000
v 0.500000 -0.125000 0.367417
v 0.500000 0.125000 0.367417
v 0.406140 -0.125000 0.461277
v 0.406140 0.125000 0.461277
v 0.538723 -0.125000 0.593860
v 0.538723 0.125000 0.593860
v 0.461191 0.125000 0.406226
v 0.593774 -0.125000 0.538809
v 0.461191 -0.125000 0.406226
v 0.593774 0.125000 0.538809
v 0.461482 -0.125000 0.594064
v 0.461482 0.125000 0.594064
v 0.594064 -0.125000 0.461482
v 0.594064 0.125000 0.461482
v 0.406079 0.125000 0.538661
v 0.538661 -0.125000 0.406079
v 0.406079 -0.125000 0.538661
v 0.538661 0.125000 0.406079
v 0.343553 -0.125000 0.656447
v 0.343553 0.125000 0.656447
v 0.343553 -0.125000 0.343553
v 0.343553 0.125000 0.343553
v 0.656447 -0.125000 0.656447
v 0.656447 0.125000 0.656447
v 0.656447 -0.125000 0.343553
v 0.656447 0.125000 0.343553
v 0.500000 -0.125000 0.721250
v 0.500000 0.125000 0.721250
v 0.278750 -0.125000 0.500000
v 0.278750 0.125000 0.500000
v 0.721250 -0.125000 0.500000
v 0.721250 0.125000 0.500000
v 0.500000 -0.125000 0.278750
v 0.500000 0.125000 0.278750
v 0.343369 -0.125000 0.435381
v 0.343369 0.125000 0.435381
v 0.564619 -0.125000 0.656631
v 0.564619 0.125000 0.656631
v 0.435237 0.125000 0.343513
v 0.656487 -0.125000 0.564763
v 0.435237 -0.125000 0.343513
v 0.656487 0.125000 0.564763
v 0.435722 -0.125000 0.656972
v 0.435722 0.125000 0.656972
v 0.656972 -0.125000 0.435722
v 0.656972 0.125000 0.435722
v 0.343266 0.125000 0.564516
v 0.564516 -0.125000 0.343266
v 0.343266 -0.125000 0.564516
v 0.564516 0.125000 0.343266
vn 0.7071 0.0000 -0.7071
vn 0.7071 0.0000 0.7071
vn -0.7071 0.0000 0.7071
vn -0.7071 0.0000 -0.7071
vn -0.0020 0.0000 -1.0000
vn -1.0000 0.0000 -0.0004
vn 1.0000 0.0000 0.0020
vn 0.0004 0.0000 1.0000
vn 0.0057 0.0000 -1.0000
vn -1.0000 0.0000 0.0057
vn 0.0000 1.0000 0.0000
vn -0.0031 0.0000 1.0000
vn 1.0000 0.0000 -0.0031
vn 0.0020 0.0000 1.0000
vn 1.0000 0.0000 0.0004
vn -1.0000 0.0000 -0.0020
vn -0.0004 -0.0000 -1.0000
vn -0.0057 0.0000 1.0000
vn 1.0000 0.0000 -0.0057
vn 0.0031 0.0000 -1.0000
vn -1.0000 0.0000 0.0031
vn 0.0000 -1.0000 0.0000
usemtl None
s off
f 31//1 11//1 12//1 29//1
f 23//2 15//2 16//2 21//2
f 27//3 13//3 14//3 28//3
f 19//4 9//4 10//4 20//4
f 5//5 19//5 20//5 6//5
f 5//6 6//6 24//6 22//6
f 11//2 17//2 18//2 12//2
f 13//4 22//4 24//4 14//4
f 3//7 4//7 18//7 17//7
f 3//8 23//8 21//8 4//8
f 1//9 2//9 26//9 25//9
f 7//10 27//10 28//10 8//10
f 9//1 25//1 26//1 10//1
f 15//3 30//3 32//3 16//3
f 14//11 46//11 60//11 28//11
f 7//12 8//12 32//12 30//12
f 24//11 56//11 46//11 14//11
f 1//13 31//13 29//13 2//13
f 63//3 61//3 44//3 43//3
f 55//4 53//4 48//4 47//4
f 59//1 60//1 46//1 45//1
f 51//2 52//2 42//2 41//2
f 37//14 38//14 52//14 51//14
f 37//15 54//15 56//15 38//15
f 43//4 44//4 50//4 49//4
f 45//2 46//2 56//2 54//2
f 35//16 49//16 50//16 36//16
f 35//17 36//17 53//17 55//17
f 33//18 57//18 58//18 34//18
f 39//19 40//19 60//19 59//19
f 41//3 42//3 58//3 57//3
f 47//1 48//1 64//1 62//1
f 24//11 6//11 38//11 56//11
f 39//20 62//20 64//20 40//20
f 20//11 52//11 38//11 6//11
f 33//21 34//21 61//21 63//21
f 23//22 55//22 47//22 15//22
f 15//22 47//22 62//22 30//22
f 30//22 62//22 39//22 7//22
f 27//22 7//22 39//22 59//22
f 28//11 60//11 40//11 8//11
f 32//11 8//11 40//11 64//11
f 32//11 64//11 48//11 16//11
f 16//11 48//11 53//11 21//11
f 21//11 53//11 36//11 4//11
f 18//11 4//11 36//11 50//11
f 18//11 50//11 44//11 12//11
f 12//11 44//11 61//11 29//11
f 29//11 61//11 34//11 2//11
f 26//11 2//11 34//11 58//11
f 26//11 58//11 42//11 10//11
f 10//11 42//11 52//11 20//11
f 23//22 3//22 35//22 55//22
f 17//22 49//22 35//22 3//22
f 11//22 43//22 49//22 17//22
f 31//22 63//22 43//22 11//22
f 31//22 1//22 33//22 63//22
f 25//22 57//22 33//22 1//22
f 9//22 41//22 57//22 25//22
f 19//22 51//22 41//22 9//22
f 19//22 5//22 37//22 51//22
f 22//22 54//22 37//22 5//22
f 13//22 45//22 54//22 22//22
f 27//22 59//22 45//22 13//22
o shaft45_Cube.002
v 0.406250 0.000000 0.593750
v 0.406250 1.000000 0.593750
v 0.406250 0.000000 0.406250
v 0.406250 1.000000 0.406250
v 0.593750 0.000000 0.593750
v 0.593750 1.000000 0.593750
v 0.593750 0.000000 0.406250
v 0.593750 1.000000 0.406250
v 0.500000 0.000000 0.632583
v 0.500000 1.000000 0.632583
v 0.367417 0.000000 0.500000
v 0.367417 1.000000 0.500000
v 0.632583 0.000000 0.500000
v 0.632583 1.000000 0.500000
v 0.500000 0.000000 0.367417
v 0.500000 1.000000 0.367417
v 0.406140 0.000000 0.461277
v 0.406140 1.000000 0.461277
v 0.538723 0.000000 0.593860
v 0.538723 1.000000 0.593860
v 0.461191 1.000000 0.406226
v 0.593774 0.000000 0.538809
v 0.461191 0.000000 0.406226
v 0.593774 1.000000 0.538809
v 0.461482 0.000000 0.594064
v 0.461482 1.000000 0.594064
v 0.594064 0.000000 0.461482
v 0.594064 1.000000 0.461482
v 0.406079 1.000000 0.538661
v 0.538661 0.000000 0.406079
v 0.406079 0.000000 0.538661
v 0.538661 1.000000 0.406079
vt 0.0214 0.6996
vt 0.9827 0.6951
vt 0.9840 0.9754
vt 0.0227 0.9799
vt 0.9742 0.2933
vt 0.0130 0.2980
vt 0.0116 0.0167
vt 0.9728 0.0119
vt 0.0128 0.7117
vt 0.9740 0.7062
vt 0.9756 0.9854
vt 0.0144 0.9909
vt 0.9781 0.2900
vt 0.0169 0.2955
vt 0.0153 0.0147
vt 0.9765 0.0092
vt 0.9793 0.4899
vt 0.0180 0.4954
vt 0.9804 0.6891
vt 0.0191 0.6946
vt 0.9776 0.9732
vt 0.0163 0.9779
vt 0.0149 0.6972
vt 0.9762 0.6924
vt 0.9820 0.9705
vt 0.0208 0.9760
vt 0.9752 0.4925
vt 0.0139 0.4973
vt 0.0205 0.4993
vt 0.0195 0.2979
vt 0.9808 0.2934
vt 0.9817 0.4948
vt 0.0116 0.5103
vt 0.9729 0.5048
vt 0.0182 0.0187
vt 0.9795 0.0141
vt 0.0089 0.0297
vt 0.9701 0.0242
vt 0.9717 0.3045
vt 0.0105 0.3100
vt 0.9761 0.2852
vt 0.0138 0.2900
vt 0.0123 0.0083
vt 0.9736 0.0028
vt 0.0139 0.2984
vt 0.0124 0.0167
vt 0.9736 0.0112
vt 0.9769 0.2943
vt 0.0154 0.6955
vt 0.9781 0.6903
vt 0.9791 0.9725
vt 0.0179 0.9780
vt 0.2348 0.7109
vt 0.0338 0.5140
vt 0.4310 0.5107
vt 0.6874 0.5093
vt 0.4882 0.3121
vt 0.8849 0.3098
vt 0.6872 0.7075
vt 0.4893 0.5104
vt 0.8857 0.5081
vt 0.2450 0.3107
vt 0.0440 0.1148
vt 0.4400 0.1107
vt 0.9780 0.6819
vt 0.9791 0.9640
vt 0.0178 0.9695
vt 0.0146 0.6864
vt 0.2443 0.5107
vt 0.0433 0.3147
vt 0.4400 0.3099
vt 0.4871 0.1209
vt 0.8842 0.1186
vt 0.6860 0.3184
vt 0.4904 0.7086
vt 0.8864 0.7064
vt 0.6885 0.9055
vt 0.2488 0.9133
vt 0.0469 0.7173
vt 0.4433 0.7129
vn -0.7071 0.0000 0.7071
vn -0.7071 0.0000 -0.7071
vn 0.7071 0.0000 -0.7071
vn 0.7071 0.0000 0.7071
vn 0.0020 0.0000 1.0000
vn 1.0000 0.0000 0.0004
vn -1.0000 0.0000 -0.0020
vn -0.0004 0.0000 -1.0000
vn -0.0057 0.0000 1.0000
vn 1.0000 0.0000 -0.0057
vn 0.0000 -1.0000 0.0000
vn 0.0031 0.0000 -1.0000
vn -1.0000 0.0000 0.0031
vn 0.0000 1.0000 0.0000
usemtl Material
s off
f 95/1/23 93/2/23 76/3/23 75/4/23
f 87/5/24 85/6/24 80/7/24 79/8/24
f 91/9/25 92/10/25 78/11/25 77/12/25
f 83/13/26 84/14/26 74/15/26 73/16/26
f 69/17/27 70/18/27 84/14/27 83/13/27
f 69/17/28 86/19/28 88/20/28 70/18/28
f 75/21/24 76/22/24 82/23/24 81/24/24
f 77/25/26 78/26/26 88/20/26 86/19/26
f 67/27/29 81/24/29 82/23/29 68/28/29
f 67/27/30 68/28/30 85/6/30 87/5/30
f 65/29/31 89/30/31 90/31/31 66/32/31
f 71/33/32 72/34/32 92/10/32 91/9/32
f 73/35/23 74/36/23 90/31/23 89/30/23
f 79/37/25 80/38/25 96/39/25 94/40/25
f 95/41/33 86/42/33 69/43/33 65/44/33
f 71/33/34 94/40/34 96/39/34 72/34/34
f 65/29/35 66/32/35 93/2/35 95/1/35
f 85/45/36 68/46/36 66/47/36 90/48/36
f 96/49/36 84/50/36 70/51/36 72/52/36
f 84/50/36 96/49/36 85/45/36 90/48/36
f 80/53/36 85/54/36 96/55/36
f 76/56/36 93/57/36 82/58/36
f 78/59/36 92/60/36 88/61/36
f 74/62/36 84/63/36 90/64/36
f 81/65/33 67/66/33 71/67/33 91/68/33
f 81/65/33 91/68/33 86/42/33 95/41/33
f 75/69/33 81/70/33 95/71/33
f 94/72/33 87/73/33 79/74/33
f 89/75/33 83/76/33 73/77/33
f 77/78/33 86/79/33 91/80/33
