# Blender v2.78 (sub 0) OBJ File: 'rotaryshaft.blend'
# www.blender.org
mtllib rotaryshaft.mtl
o shaft45_Cube.002
v 0.406250 0.000000 0.593750
v 0.406250 1.000000 0.593750
v 0.406250 0.000000 0.406250
v 0.406250 1.000000 0.406250
v 0.593750 0.000000 0.593750
v 0.593750 1.000000 0.593750
v 0.593750 0.000000 0.406250
v 0.593750 1.000000 0.406250
v 0.500000 0.000000 0.632583
v 0.500000 1.000000 0.632583
v 0.367417 0.000000 0.500000
v 0.367417 1.000000 0.500000
v 0.632583 0.000000 0.500000
v 0.632583 1.000000 0.500000
v 0.500000 0.000000 0.367417
v 0.500000 1.000000 0.367417
v 0.406140 0.000000 0.461277
v 0.406140 1.000000 0.461277
v 0.538723 0.000000 0.593860
v 0.538723 1.000000 0.593860
v 0.461191 1.000000 0.406226
v 0.593774 0.000000 0.538809
v 0.461191 0.000000 0.406226
v 0.593774 1.000000 0.538809
v 0.461482 0.000000 0.594064
v 0.461482 1.000000 0.594064
v 0.594064 0.000000 0.461482
v 0.594064 1.000000 0.461482
v 0.406079 1.000000 0.538661
v 0.538661 0.000000 0.406079
v 0.406079 0.000000 0.538661
v 0.538661 1.000000 0.406079
vn -0.7071 0.0000 0.7071
vn -0.7071 0.0000 -0.7071
vn 0.7071 0.0000 -0.7071
vn 0.7071 0.0000 0.7071
vn 0.0020 0.0000 1.0000
vn 1.0000 0.0000 0.0004
vn -1.0000 0.0000 -0.0020
vn -0.0004 0.0000 -1.0000
vn -0.0057 0.0000 1.0000
vn 1.0000 0.0000 -0.0057
vn 0.0000 -1.0000 0.0000
vn 0.0031 0.0000 -1.0000
vn -1.0000 0.0000 0.0031
vn 0.0000 1.0000 0.0000
usemtl None
s off
f 31//1 29//1 12//1 11//1
f 23//2 21//2 16//2 15//2
f 27//3 28//3 14//3 13//3
f 19//4 20//4 10//4 9//4
f 5//5 6//5 20//5 19//5
f 5//6 22//6 24//6 6//6
f 11//2 12//2 18//2 17//2
f 13//4 14//4 24//4 22//4
f 3//7 17//7 18//7 4//7
f 3//8 4//8 21//8 23//8
f 1//9 25//9 26//9 2//9
f 7//10 8//10 28//10 27//10
f 9//1 10//1 26//1 25//1
f 15//3 16//3 32//3 30//3
f 31//11 22//11 5//11 1//11
f 7//12 30//12 32//12 8//12
f 1//13 2//13 29//13 31//13
f 21//14 4//14 2//14 26//14
f 32//14 20//14 6//14 8//14
f 20//14 32//14 21//14 26//14
f 16//14 21//14 32//14
f 12//14 29//14 18//14
f 14//14 28//14 24//14
f 10//14 20//14 26//14
f 17//11 3//11 7//11 27//11
f 17//11 27//11 22//11 31//11
f 11//11 17//11 31//11
f 30//11 23//11 15//11
f 25//11 19//11 9//11
f 13//11 22//11 27//11
