# Blender v2.78 (sub 0) OBJ File: 'undershot3.blend'
# www.blender.org
mtllib undershot.mtl
o F_Wheel.003_Cube.030
v 0.002934 0.904592 -0.467926
v 0.002934 1.472185 0.099666
v 0.002934 1.064495 -0.853636
v 0.002934 1.857894 -0.060236
v 0.190934 0.904592 -0.467926
v 0.190934 1.472185 0.099666
v 0.190934 1.064495 -0.853636
v 0.190934 1.857894 -0.060236
v 0.002934 -0.851894 1.062405
v 0.002934 -0.058495 1.855804
v 0.002934 -0.466185 0.902502
v 0.002934 0.101408 1.470095
v 0.190934 -0.851894 1.062405
v 0.190934 -0.058495 1.855804
v 0.190934 -0.466185 0.902502
v 0.190934 0.101408 1.470095
v 0.002934 -0.465839 0.096098
v 0.002934 0.102240 -0.471981
v 0.002934 -0.851412 -0.063475
v 0.002934 -0.057333 -0.857554
v 0.190934 -0.465840 0.096098
v 0.190934 0.102240 -0.471981
v 0.190934 -0.851412 -0.063475
v 0.190934 -0.057333 -0.857554
v 0.002934 1.866345 1.065148
v 0.002934 1.480772 0.905575
v 0.190934 1.866345 1.065148
v 0.190934 1.480772 0.905575
v 0.002934 1.072265 1.859227
v 0.002934 0.912693 1.473655
v 0.190934 1.072265 1.859227
v 0.190934 0.912693 1.473655
vn -1.0000 0.0000 0.0000
vn 0.0000 0.7071 -0.7071
vn 1.0000 0.0000 0.0000
vn 0.0000 -0.7071 0.7071
vn -0.0000 -0.9238 -0.3830
vn 0.0000 0.3830 0.9238
vn 0.0000 -0.3830 -0.9238
vn 0.0000 0.9238 0.3830
vn 0.0000 -0.7071 -0.7071
vn 0.0000 0.7071 0.7071
vn 0.0000 -0.3824 0.9240
vn 0.0000 0.9240 -0.3824
vn 0.0000 -1.0000 -0.0004
vn 0.0000 1.0000 0.0004
vn -0.0000 0.0035 -1.0000
vn 0.0000 -0.0051 1.0000
vn 0.0000 -0.9999 0.0107
vn 0.0000 1.0000 -0.0075
vn 0.0000 -0.9240 0.3824
vn 0.0000 0.0044 -1.0000
vn 0.0000 -0.0030 1.0000
usemtl None
s off
f 1//1 2//1 4//1 3//1
f 3//2 4//2 8//2 7//2
f 7//3 8//3 6//3 5//3
f 5//4 6//4 2//4 1//4
f 3//5 7//5 5//5 1//5
f 8//6 4//6 2//6 6//6
f 9//1 10//1 12//1 11//1
f 11//2 12//2 16//2 15//2
f 15//3 16//3 14//3 13//3
f 13//4 14//4 10//4 9//4
f 11//7 15//7 13//7 9//7
f 16//8 12//8 10//8 14//8
f 17//1 18//1 20//1 19//1
f 19//9 20//9 24//9 23//9
f 23//3 24//3 22//3 21//3
f 21//10 22//10 18//10 17//10
f 19//11 23//11 21//11 17//11
f 24//12 20//12 18//12 22//12
f 11//1 17//1 19//1 9//1
f 9//13 19//13 23//13 13//13
f 13//3 23//3 21//3 15//3
f 15//14 21//14 17//14 11//14
f 18//1 1//1 3//1 20//1
f 20//15 3//15 7//15 24//15
f 24//3 7//3 5//3 22//3
f 22//16 5//16 1//16 18//16
f 25//1 4//1 2//1 26//1
f 26//17 2//17 6//17 28//17
f 28//3 6//3 8//3 27//3
f 27//18 8//18 4//18 25//18
f 26//11 28//11 27//11 25//11
f 29//1 25//1 26//1 30//1
f 30//9 26//9 28//9 32//9
f 32//3 28//3 27//3 31//3
f 31//10 27//10 25//10 29//10
f 30//19 32//19 31//19 29//19
f 10//1 29//1 30//1 12//1
f 12//20 30//20 32//20 16//20
f 16//3 32//3 31//3 14//3
f 14//21 31//21 29//21 10//21
o F_Wheel.002_Cube.029
v 0.811554 0.904592 -0.467926
v 0.811554 1.472185 0.099666
v 0.811554 1.064495 -0.853636
v 0.811554 1.857894 -0.060236
v 0.999554 0.904592 -0.467926
v 0.999554 1.472185 0.099666
v 0.999554 1.064495 -0.853636
v 0.999554 1.857894 -0.060236
v 0.811554 -0.851894 1.062405
v 0.811554 -0.058495 1.855804
v 0.811554 -0.466185 0.902502
v 0.811554 0.101408 1.470095
v 0.999554 -0.851894 1.062405
v 0.999554 -0.058495 1.855804
v 0.999554 -0.466185 0.902502
v 0.999554 0.101408 1.470095
v 0.811554 -0.465839 0.096098
v 0.811554 0.102240 -0.471981
v 0.811554 -0.851412 -0.063475
v 0.811554 -0.057333 -0.857554
v 0.999554 -0.465840 0.096098
v 0.999554 0.102240 -0.471981
v 0.999554 -0.851412 -0.063475
v 0.999554 -0.057333 -0.857554
v 0.811554 1.866345 1.065148
v 0.811554 1.480772 0.905575
v 0.999554 1.866345 1.065148
v 0.999554 1.480772 0.905575
v 0.811554 1.072265 1.859227
v 0.811554 0.912693 1.473655
v 0.999554 1.072265 1.859227
v 0.999554 0.912693 1.473655
vn -1.0000 0.0000 0.0000
vn 0.0000 0.7071 -0.7071
vn 1.0000 0.0000 0.0000
vn 0.0000 -0.7071 0.7071
vn -0.0000 -0.9238 -0.3830
vn 0.0000 0.3830 0.9238
vn 0.0000 -0.3830 -0.9238
vn 0.0000 0.9238 0.3830
vn 0.0000 -0.7071 -0.7071
vn 0.0000 0.7071 0.7071
vn 0.0000 -0.3824 0.9240
vn 0.0000 0.9240 -0.3824
vn 0.0000 -1.0000 -0.0004
vn 0.0000 1.0000 0.0004
vn -0.0000 0.0035 -1.0000
vn 0.0000 -0.0051 1.0000
vn 0.0000 -0.9999 0.0107
vn 0.0000 1.0000 -0.0075
vn 0.0000 -0.9240 0.3824
vn 0.0000 0.0044 -1.0000
vn 0.0000 -0.0030 1.0000
usemtl None
s off
f 33//22 34//22 36//22 35//22
f 35//23 36//23 40//23 39//23
f 39//24 40//24 38//24 37//24
f 37//25 38//25 34//25 33//25
f 35//26 39//26 37//26 33//26
f 40//27 36//27 34//27 38//27
f 41//22 42//22 44//22 43//22
f 43//23 44//23 48//23 47//23
f 47//24 48//24 46//24 45//24
f 45//25 46//25 42//25 41//25
f 43//28 47//28 45//28 41//28
f 48//29 44//29 42//29 46//29
f 49//22 50//22 52//22 51//22
f 51//30 52//30 56//30 55//30
f 55//24 56//24 54//24 53//24
f 53//31 54//31 50//31 49//31
f 51//32 55//32 53//32 49//32
f 56//33 52//33 50//33 54//33
f 43//22 49//22 51//22 41//22
f 41//34 51//34 55//34 45//34
f 45//24 55//24 53//24 47//24
f 47//35 53//35 49//35 43//35
f 50//22 33//22 35//22 52//22
f 52//36 35//36 39//36 56//36
f 56//24 39//24 37//24 54//24
f 54//37 37//37 33//37 50//37
f 57//22 36//22 34//22 58//22
f 58//38 34//38 38//38 60//38
f 60//24 38//24 40//24 59//24
f 59//39 40//39 36//39 57//39
f 58//32 60//32 59//32 57//32
f 61//22 57//22 58//22 62//22
f 62//30 58//30 60//30 64//30
f 64//24 60//24 59//24 63//24
f 63//31 59//31 57//31 61//31
f 62//40 64//40 63//40 61//40
f 42//22 61//22 62//22 44//22
f 44//41 62//41 64//41 48//41
f 48//24 64//24 63//24 46//24
f 46//42 63//42 61//42 42//42
o Cube.009_Cube.027
v 0.187500 -1.460035 -0.241645
v 0.187500 -1.412200 -0.357130
v 0.187500 -0.610066 0.110424
v 0.187500 -0.562231 -0.005061
v 0.812500 -1.460035 -0.241645
v 0.812500 -1.412200 -0.357130
v 0.812500 -0.610066 0.110424
v 0.812500 -0.562231 -0.005061
vn -1.0000 0.0000 0.0000
vn 0.0000 0.9239 0.3827
vn 1.0000 0.0000 0.0000
vn 0.0000 -0.9239 -0.3827
vn 0.0000 -0.3827 0.9239
vn 0.0000 0.3827 -0.9239
usemtl None
s off
f 65//43 67//43 68//43 66//43
f 67//44 71//44 72//44 68//44
f 71//45 69//45 70//45 72//45
f 69//46 65//46 66//46 70//46
f 67//47 65//47 69//47 71//47
f 72//48 70//48 66//48 68//48
o Cube.008_Cube.026
v 0.187500 -0.610066 0.896761
v 0.187500 -0.562231 1.012246
v 0.187500 -1.460035 1.248830
v 0.187500 -1.412200 1.364315
v 0.812500 -0.610066 0.896761
v 0.812500 -0.562231 1.012246
v 0.812500 -1.460035 1.248830
v 0.812500 -1.412200 1.364315
vn -1.0000 0.0000 0.0000
vn 0.0000 -0.9239 0.3827
vn 1.0000 0.0000 0.0000
vn 0.0000 0.9239 -0.3827
vn 0.0000 -0.3827 -0.9239
vn 0.0000 0.3827 0.9239
usemtl None
s off
f 73//49 75//49 76//49 74//49
f 75//50 79//50 80//50 76//50
f 79//51 77//51 78//51 80//51
f 77//52 73//52 74//52 78//52
f 75//53 73//53 77//53 79//53
f 80//54 78//54 74//54 76//54
o Cube.007_Cube.025
v 0.187500 1.573820 1.012246
v 0.187500 1.621655 0.896761
v 0.187500 2.423789 1.364315
v 0.187500 2.471624 1.248830
v 0.812500 1.573820 1.012246
v 0.812500 1.621655 0.896761
v 0.812500 2.423789 1.364315
v 0.812500 2.471624 1.248830
vn -1.0000 0.0000 0.0000
vn 0.0000 0.9239 0.3827
vn 1.0000 0.0000 0.0000
vn 0.0000 -0.9239 -0.3827
vn 0.0000 -0.3827 0.9239
vn 0.0000 0.3827 -0.9239
usemtl None
s off
f 81//55 83//55 84//55 82//55
f 83//56 87//56 88//56 84//56
f 87//57 85//57 86//57 88//57
f 85//58 81//58 82//58 86//58
f 83//59 81//59 85//59 87//59
f 88//60 86//60 82//60 84//60
o Cube.002_Cube.024
v 0.187500 2.423789 -0.362937
v 0.187500 2.471624 -0.247452
v 0.187500 1.573820 -0.010868
v 0.187500 1.621655 0.104617
v 0.812500 2.423789 -0.362937
v 0.812500 2.471624 -0.247452
v 0.812500 1.573820 -0.010868
v 0.812500 1.621655 0.104617
vn -1.0000 0.0000 0.0000
vn 0.0000 -0.9239 0.3827
vn 1.0000 0.0000 0.0000
vn 0.0000 0.9239 -0.3827
vn 0.0000 -0.3827 -0.9239
vn 0.0000 0.3827 0.9239
usemtl None
s off
f 89//61 91//61 92//61 90//61
f 91//62 95//62 96//62 92//62
f 95//63 93//63 94//63 96//63
f 93//64 89//64 90//64 94//64
f 91//65 89//65 93//65 95//65
f 96//66 94//66 90//66 92//66
o Cube.006_Cube.023
v 0.187500 -0.005369 1.554938
v 0.187500 0.110116 1.602773
v 0.187500 -0.357438 2.404907
v 0.187500 -0.241953 2.452743
v 0.812500 -0.005369 1.554938
v 0.812500 0.110116 1.602773
v 0.812500 -0.357438 2.404907
v 0.812500 -0.241953 2.452743
vn -1.0000 0.0000 0.0000
vn 0.0000 -0.3827 0.9239
vn 1.0000 0.0000 0.0000
vn 0.0000 0.3827 -0.9239
vn 0.0000 -0.9239 -0.3827
vn 0.0000 0.9239 0.3827
usemtl None
s off
f 97//67 99//67 100//67 98//67
f 99//68 103//68 104//68 100//68
f 103//69 101//69 102//69 104//69
f 101//70 97//70 98//70 102//70
f 99//71 97//71 101//71 103//71
f 104//72 102//72 98//72 100//72
o Cube.000_Cube.008
v 0.187500 1.244647 -1.463872
v 0.187500 1.360132 -1.416037
v 0.187500 0.892578 -0.613903
v 0.187500 1.008063 -0.566067
v 0.812500 1.244647 -1.463872
v 0.812500 1.360132 -1.416037
v 0.812500 0.892578 -0.613903
v 0.812500 1.008063 -0.566067
vn -1.0000 0.0000 0.0000
vn 0.0000 -0.3827 0.9239
vn 1.0000 0.0000 0.0000
vn 0.0000 0.3827 -0.9239
vn 0.0000 -0.9239 -0.3827
vn 0.0000 0.9239 0.3827
usemtl None
s off
f 105//73 107//73 108//73 106//73
f 107//74 111//74 112//74 108//74
f 111//75 109//75 110//75 112//75
f 109//76 105//76 106//76 110//76
f 107//77 105//77 109//77 111//77
f 112//78 110//78 106//78 108//78
o Cube.003_Cube.007
v 0.187500 -0.362349 -1.416037
v 0.187500 -0.246864 -1.463872
v 0.187500 -0.010280 -0.566067
v 0.187500 0.105205 -0.613903
v 0.812500 -0.362349 -1.416037
v 0.812500 -0.246864 -1.463872
v 0.812500 -0.010280 -0.566067
v 0.812500 0.105205 -0.613903
vn -1.0000 0.0000 0.0000
vn 0.0000 0.3827 0.9239
vn 1.0000 0.0000 0.0000
vn 0.0000 -0.3827 -0.9239
vn 0.0000 -0.9239 0.3827
vn 0.0000 0.9239 -0.3827
usemtl None
s off
f 113//79 115//79 116//79 114//79
f 115//80 119//80 120//80 116//80
f 119//81 117//81 118//81 120//81
f 117//82 113//82 114//82 118//82
f 115//83 113//83 117//83 119//83
f 120//84 118//84 114//84 116//84
o Cube.001_Cube.006
v 0.187500 0.891121 1.602773
v 0.187500 1.006606 1.554938
v 0.187500 1.243190 2.452743
v 0.187500 1.358675 2.404907
v 0.812500 0.891121 1.602773
v 0.812500 1.006606 1.554938
v 0.812500 1.243190 2.452743
v 0.812500 1.358675 2.404907
vn -1.0000 0.0000 0.0000
vn 0.0000 0.3827 0.9239
vn 1.0000 0.0000 0.0000
vn 0.0000 -0.3827 -0.9239
vn 0.0000 -0.9239 0.3827
vn 0.0000 0.9239 -0.3827
usemtl None
s off
f 121//85 123//85 124//85 122//85
f 123//86 127//86 128//86 124//86
f 127//87 125//87 126//87 128//87
f 125//88 121//88 122//88 126//88
f 123//89 121//89 125//89 127//89
f 128//90 126//90 122//90 124//90
o Cube.015_Cube.004
v 0.187500 -1.028194 1.936206
v 0.187500 -0.939806 2.024595
v 0.187000 -0.089318 0.997609
v 0.187000 -0.001079 1.086158
v 0.812500 -1.028194 1.936206
v 0.812500 -0.939806 2.024595
v 0.812998 -0.089183 0.998415
v 0.813000 -0.000961 1.086735
v 0.187002 1.001876 -0.085518
v 0.187110 1.090192 0.002828
v 0.187500 1.944615 -1.028847
v 0.187500 2.033004 -0.940459
v 0.813000 1.002007 -0.085373
v 0.812700 1.090189 0.002687
v 0.812500 1.944615 -1.028847
v 0.812500 2.033004 -0.940459
v 0.187000 -0.088261 0.001143
v 0.187001 -0.000089 -0.086787
v 0.187500 -1.030372 -0.939615
v 0.187500 -0.941983 -1.028004
v 0.813002 -0.089386 0.001793
v 0.812504 -0.001050 -0.087128
v 0.812500 -1.030372 -0.939615
v 0.812500 -0.941983 -1.028004
v 0.187500 1.939734 2.028049
v 0.187500 2.028123 1.939661
v 0.187229 0.997622 1.089437
v 0.187000 1.087515 0.999276
v 0.812500 1.939734 2.028049
v 0.812500 2.028123 1.939661
v 0.812500 0.999721 1.088079
v 0.813008 1.088134 0.999457
v 0.187500 -0.349002 0.437623
v 0.186997 0.437819 -0.349298
v 0.187000 -0.525027 0.437898
v 0.187000 0.437641 -0.525027
v 0.813016 -0.348608 0.437299
v 0.813000 0.437760 -0.349530
v 0.813000 -0.525027 0.437392
v 0.813000 0.437554 -0.525027
v 0.187000 0.561767 1.525027
v 0.187000 1.525027 0.562339
v 0.186996 0.562737 1.348550
v 0.186997 1.349012 0.562534
v 0.813000 0.562257 1.525027
v 0.813000 1.525027 0.562400
v 0.813000 0.562686 1.349259
v 0.813000 1.349995 0.562390
v 0.187000 -0.525027 0.562451
v 0.187000 0.437447 1.525027
v 0.187501 -0.348386 0.562526
v 0.187000 0.437394 1.349146
v 0.813000 -0.525027 0.562354
v 0.813000 0.437460 1.525027
v 0.813001 -0.349289 0.562508
v 0.813004 0.437853 1.349361
v 0.187000 0.562765 -0.349089
v 0.187000 1.349865 0.437247
v 0.187000 0.562387 -0.525027
v 0.187000 1.525027 0.437707
v 0.813000 0.562682 -0.349523
v 0.812995 1.349210 0.437662
v 0.813000 0.562475 -0.525027
v 0.813000 1.525027 0.437589
v 0.187500 -1.600000 0.437500
v 0.187500 -1.600000 0.562500
v 0.187500 2.600000 0.437500
v 0.187500 2.600000 0.562500
v 0.812500 -1.600000 0.437500
v 0.812500 -1.600000 0.562500
v 0.812500 2.600000 0.437500
v 0.812500 2.600000 0.562500
v 0.187500 0.437500 2.600000
v 0.187500 0.562500 2.600000
v 0.187500 0.437500 -1.600000
v 0.187500 0.562500 -1.600000
v 0.812500 0.437500 2.600000
v 0.812500 0.562500 2.600000
v 0.812500 0.437500 -1.600000
v 0.812500 0.562500 -1.600000
vn -1.0000 -0.0003 0.0003
vn 0.0006 0.7079 -0.7063
vn 1.0000 -0.0003 0.0003
vn 0.0000 -0.7071 0.7071
vn 0.0005 -0.7068 -0.7074
vn -0.0004 0.7069 0.7073
vn -1.0000 0.0005 0.0001
vn 0.0000 0.7071 -0.7071
vn 1.0000 0.0010 0.0007
vn 0.0001 -0.7069 0.7073
vn 0.0002 -0.7074 -0.7068
vn 0.0001 0.7073 0.7070
vn -1.0000 -0.0003 -0.0003
vn 0.0000 -0.7071 -0.7071
vn 1.0000 0.0013 -0.0015
vn 0.0010 0.7078 0.7064
vn -0.0010 -0.7069 0.7073
vn 0.0004 0.7070 -0.7072
vn -1.0000 -0.0004 0.0008
vn 0.0009 -0.7081 -0.7062
vn 1.0000 -0.0013 0.0016
vn 0.0000 0.7071 0.7071
vn 0.0020 -0.7064 0.7078
vn -0.0002 0.7071 -0.7071
vn -1.0000 0.0013 0.0016
vn -0.0003 -0.7071 -0.7071
vn 1.0000 -0.0000 -0.0001
vn 0.0001 0.7072 0.7070
vn 0.0007 0.0010 1.0000
vn 0.0001 1.0000 -0.0011
vn -1.0000 0.0000 0.0000
vn 0.0008 -0.7069 -0.7073
vn 1.0000 0.0000 0.0000
vn -0.0003 0.7070 0.7072
vn 0.0004 -1.0000 -0.0040
vn -0.0001 -0.0005 -1.0000
vn -1.0000 0.0013 -0.0016
vn 0.0004 0.7072 -0.7070
vn 0.0001 -0.7072 0.7071
vn -0.0001 0.0006 -1.0000
vn -0.0004 1.0000 0.0010
vn -0.0001 0.7071 -0.7071
vn -0.0004 -0.7071 0.7071
vn 0.0000 -1.0000 0.0017
vn -0.0002 -0.0011 1.0000
vn 0.0000 1.0000 0.0000
vn 0.0000 -1.0000 0.0000
vn 0.0000 0.0000 -1.0000
vn 0.0000 -0.0000 1.0000
usemtl None
s off
f 129//91 130//91 132//91 131//91
f 131//92 132//92 136//92 135//92
f 135//93 136//93 134//93 133//93
f 133//94 134//94 130//94 129//94
f 131//95 135//95 133//95 129//95
f 136//96 132//96 130//96 134//96
f 137//97 138//97 140//97 139//97
f 139//98 140//98 144//98 143//98
f 143//99 144//99 142//99 141//99
f 141//100 142//100 138//100 137//100
f 139//101 143//101 141//101 137//101
f 144//102 140//102 138//102 142//102
f 145//103 146//103 148//103 147//103
f 147//104 148//104 152//104 151//104
f 151//105 152//105 150//105 149//105
f 149//106 150//106 146//106 145//106
f 147//107 151//107 149//107 145//107
f 152//108 148//108 146//108 150//108
f 153//109 154//109 156//109 155//109
f 155//110 156//110 160//110 159//110
f 159//111 160//111 158//111 157//111
f 157//112 158//112 154//112 153//112
f 155//113 159//113 157//113 153//113
f 160//114 156//114 154//114 158//114
f 161//115 162//115 164//115 163//115
f 163//116 164//116 168//116 167//116
f 167//117 168//117 166//117 165//117
f 165//118 166//118 162//118 161//118
f 163//119 167//119 165//119 161//119
f 168//120 164//120 162//120 166//120
f 169//121 170//121 172//121 171//121
f 171//122 172//122 176//122 175//122
f 175//123 176//123 174//123 173//123
f 173//124 174//124 170//124 169//124
f 171//125 175//125 173//125 169//125
f 176//126 172//126 170//126 174//126
f 177//127 178//127 180//127 179//127
f 179//128 180//128 184//128 183//128
f 183//123 184//123 182//123 181//123
f 181//129 182//129 178//129 177//129
f 179//130 183//130 181//130 177//130
f 184//131 180//131 178//131 182//131
f 185//121 186//121 188//121 187//121
f 187//132 188//132 192//132 191//132
f 191//123 192//123 190//123 189//123
f 189//133 190//133 186//133 185//133
f 187//134 191//134 189//134 185//134
f 192//135 188//135 186//135 190//135
f 193//121 194//121 196//121 195//121
f 195//136 196//136 200//136 199//136
f 199//123 200//123 198//123 197//123
f 197//137 198//137 194//137 193//137
f 195//138 199//138 197//138 193//138
f 200//139 196//139 194//139 198//139
f 201//121 202//121 204//121 203//121
f 203//138 204//138 208//138 207//138
f 207//123 208//123 206//123 205//123
f 205//139 206//139 202//139 201//139
f 203//137 207//137 205//137 201//137
f 208//136 204//136 202//136 206//136
o C_Cube_Cube.001
v 0.000000 0.375000 0.625000
v 0.000000 0.625000 0.625000
v 0.000000 0.375000 0.375000
v 0.000000 0.625000 0.375000
v 1.000000 0.375000 0.625000
v 1.000000 0.625000 0.625000
v 1.000000 0.375000 0.375000
v 1.000000 0.625000 0.375000
vn -1.0000 0.0000 0.0000
vn 0.0000 0.0000 -1.0000
vn 1.0000 0.0000 0.0000
vn 0.0000 0.0000 1.0000
vn 0.0000 -1.0000 0.0000
vn 0.0000 1.0000 0.0000
usemtl None
s off
f 209//140 210//140 212//140 211//140
f 211//141 212//141 216//141 215//141
f 215//142 216//142 214//142 213//142
f 213//143 214//143 210//143 209//143
f 211//144 215//144 213//144 209//144
f 216//145 212//145 210//145 214//145
